<svg width="258" height="258" viewBox="0 0 258 258" fill="none" xmlns="http://www.w3.org/2000/svg">
<rect width="258" height="258" rx="129" fill="#AFD8E0"/>
<path d="M197.71 53.7928C207.067 45.0731 216.423 41.7129 225.78 43.7088C243.474 63.7715 255.03 89.3779 257.502 117.59H0.498047C2.96645 89.4247 14.4868 63.856 32.1319 43.8082C41.6417 41.6015 51.152 44.9305 60.6617 53.7928C75.8891 67.9834 91.1166 67.9835 106.344 53.7928C121.572 39.6017 136.8 39.6017 152.027 53.7928C167.255 67.9837 182.483 67.9838 197.71 53.7928Z" fill="#83CAD7"/>
<path d="M197.71 100.151C212.938 85.9603 228.165 85.9603 243.393 100.151C247.738 104.201 252.085 107.093 256.43 108.832C257.462 115.403 258 122.139 258 129C258 141.112 256.329 152.834 253.208 163.949H4.79203C1.6709 152.834 0 141.112 0 129C1.58812e-05 122.193 0.528359 115.509 1.5442 108.987C5.78421 107.36 10.0249 104.634 14.2649 100.806L15.692 99.4966C30.6817 85.9636 45.6719 86.1817 60.6617 100.151C75.8892 114.342 91.1163 114.342 106.344 100.151C121.334 86.1816 136.324 85.9635 151.314 99.4966L152.741 100.806C167.731 114.339 182.721 114.121 197.71 100.151Z" fill="#3AA7BB"/>
<path d="M197.71 149.185C212.938 134.993 228.165 134.993 243.393 149.185C247.229 152.76 251.067 155.433 254.904 157.207C250.225 178.183 240.44 197.232 226.919 212.982H31.0807C17.5924 197.27 7.8217 178.275 3.12964 157.359C7.07873 155.588 11.0292 152.865 14.9783 149.185C30.206 134.993 45.4339 134.993 60.6616 149.185C75.8889 163.375 91.1164 163.375 106.344 149.185C121.571 134.993 136.799 134.993 152.027 149.185C167.255 163.376 182.483 163.376 197.71 149.185Z" fill="#25749C"/>
<path d="M197.71 199.11C211.614 186.153 225.516 185.027 239.42 195.731C216.815 233.055 175.821 258 129 258C82.2604 258 41.3271 233.142 18.6978 195.926C32.6857 185.013 46.6738 186.074 60.6617 199.11C75.8891 213.3 91.1166 213.3 106.344 199.11C121.572 184.919 136.8 184.919 152.027 199.11C167.255 213.301 182.483 213.301 197.71 199.11Z" fill="#0A527A"/>
<path d="M126.932 54.0469C139.569 54.0469 150.318 55.8627 159.178 59.494C168.039 63.1253 174.866 68.2095 179.659 74.7459C184.452 81.1371 187.067 88.6184 187.503 97.1885L156.128 106.122C156.128 101.91 155.402 98.2052 153.949 95.0097C152.642 91.814 150.753 89.1992 148.284 87.1656C145.815 84.9868 142.764 83.3886 139.132 82.3718C135.501 81.2099 131.362 80.6291 126.714 80.6291C121.194 80.6291 116.473 81.2827 112.551 82.5899C108.775 83.8971 105.942 85.6403 104.054 87.8189C102.166 89.8525 101.221 92.2498 101.221 95.0097C101.221 98.4957 102.673 101.401 105.578 103.725C108.629 105.904 112.696 107.792 117.78 109.39C123.009 110.843 128.747 112.295 134.993 113.748C141.239 115.055 147.703 116.725 154.384 118.759C161.066 120.647 167.312 123.189 173.123 126.385C178.933 129.58 183.581 133.938 187.067 139.458C190.698 144.832 192.514 151.659 192.514 159.939C192.514 168.799 190.118 176.571 185.324 183.253C180.676 189.789 173.631 194.873 164.189 198.505C154.748 202.136 143.055 203.952 129.111 203.952C119.814 203.952 111.389 203.08 103.836 201.337C96.2825 199.594 89.746 196.979 84.2262 193.493C78.7066 189.861 74.3488 185.286 71.1532 179.766C68.0267 174.366 66.1516 168.131 65.5279 161.062H65.5004V160.737C65.4964 160.689 65.4919 160.641 65.488 160.593L65.5004 160.588V124.743L125.834 161.062H98.7623C99.5007 162.696 100.393 164.209 101.439 165.604C104.489 169.671 108.557 172.722 113.641 174.755C118.87 176.644 124.68 177.587 131.071 177.587C137.172 177.587 142.256 176.861 146.323 175.409C150.535 173.811 153.658 171.849 155.692 169.525C157.87 167.056 158.96 164.442 158.96 161.682C158.96 158.487 157.58 155.872 154.82 153.838C152.061 151.659 148.284 149.844 143.49 148.391C138.697 146.793 133.105 145.268 126.714 143.815C119.451 142.072 112.333 140.184 105.36 138.15C98.3883 136.117 92.07 133.502 86.4051 130.306C80.7401 126.965 76.2368 122.753 72.8959 117.669C69.7003 112.44 68.103 105.904 68.103 98.0598C68.103 89.1992 70.3537 81.5005 74.8567 74.964C79.3596 68.4275 85.969 63.3435 94.6843 59.7121C103.4 55.9354 114.149 54.0469 126.932 54.0469Z" fill="#F0E8DB"/>
</svg>
