<svg width="258" height="258" viewBox="0 0 258 258" fill="none" xmlns="http://www.w3.org/2000/svg">
<g clip-path="url(#clip0_398_17)">
<rect width="258" height="258" fill="#AFD8E0"/>
<path d="M-193 38.4785C-176.611 23.1738 -160.222 23.1738 -143.833 38.4785C-127.444 53.7831 -111.056 53.7831 -94.6667 38.4785C-78.2778 23.1738 -61.8889 23.1738 -45.5 38.4785C-29.1112 53.7831 -12.7223 53.7831 3.66661 38.4785C20.0555 23.1738 36.4444 23.1738 52.8333 38.4785C69.2222 53.7831 85.611 53.7831 102 38.4785C118.389 23.1738 134.778 23.1738 151.167 38.4785C167.555 53.7831 183.944 53.7831 200.333 38.4785C216.722 23.1738 233.111 23.1738 249.5 38.4785C265.889 53.7831 282.278 53.7831 298.667 38.4785C315.055 23.1738 331.444 23.1738 347.833 38.4785C364.222 53.7831 380.611 53.7831 397 38.4785V107.282H-193V38.4785Z" fill="#83CAD7"/>
<path d="M-193 88.4743C-176.611 73.1697 -160.222 73.1697 -143.833 88.4743C-127.444 103.779 -111.055 103.779 -94.6666 88.4743C-78.2777 73.1697 -61.8888 73.1697 -45.4999 88.4743C-29.111 103.779 -12.7222 103.779 3.66673 88.4743C20.0556 73.1697 36.4445 73.1697 52.8334 88.4743C69.2223 103.779 85.6112 103.779 102 88.4743C118.389 73.1697 134.778 73.1697 151.167 88.4743C167.556 103.779 183.944 103.779 200.333 88.4743C216.722 73.1697 233.111 73.1697 249.5 88.4743C265.889 103.779 282.278 103.779 298.667 88.4743C315.056 73.1697 331.444 73.1697 347.833 88.4743C364.222 103.779 380.611 103.779 397 88.4743V157.278H-193V88.4743Z" fill="#3AA7BB"/>
<path d="M-193 141.355C-176.611 126.05 -160.222 126.05 -143.833 141.355C-127.444 156.659 -111.055 156.659 -94.6666 141.355C-78.2777 126.05 -61.8888 126.05 -45.4999 141.355C-29.111 156.659 -12.7222 156.659 3.66673 141.355C20.0556 126.05 36.4445 126.05 52.8334 141.355C69.2223 156.659 85.6112 156.659 102 141.355C118.389 126.05 134.778 126.05 151.167 141.355C167.556 156.659 183.944 156.659 200.333 141.355C216.722 126.05 233.111 126.05 249.5 141.355C265.889 156.659 282.278 156.659 298.667 141.355C315.056 126.05 331.444 126.05 347.833 141.355C364.222 156.659 380.611 156.659 397 141.355V210.158H-193V141.355Z" fill="#25749C"/>
<path d="M-193 195.196C-176.611 179.892 -160.222 179.892 -143.833 195.196C-127.444 210.501 -111.055 210.501 -94.6666 195.196C-78.2777 179.892 -61.8888 179.892 -45.4999 195.196C-29.111 210.501 -12.7222 210.501 3.66673 195.196C20.0556 179.892 36.4445 179.892 52.8334 195.196C69.2223 210.501 85.6112 210.501 102 195.196C118.389 179.892 134.778 179.892 151.167 195.196C167.556 210.501 183.944 210.501 200.333 195.196C216.722 179.892 233.111 179.892 249.5 195.196C265.889 210.501 282.278 210.501 298.667 195.196C315.056 179.892 331.444 179.892 347.833 195.196C364.222 210.501 380.611 210.501 397 195.196V264H-193V195.196Z" fill="#0A527A"/>
<path d="M126.932 54.0469C139.569 54.0469 150.318 55.8626 159.178 59.494C168.039 63.1253 174.866 68.2095 179.659 74.7459C184.452 81.1371 187.067 88.6184 187.503 97.1885L156.128 106.122C156.128 101.91 155.402 98.2052 153.949 95.0096C152.642 91.814 150.753 89.1992 148.284 87.1656C145.815 84.9868 142.764 83.3886 139.132 82.3718C135.501 81.2098 131.362 80.6291 126.714 80.6291C121.194 80.6291 116.473 81.2826 112.551 82.5899C108.775 83.8971 105.942 85.6403 104.054 87.8189C102.166 89.8525 101.221 92.2498 101.221 95.0096C101.221 98.4957 102.673 101.401 105.578 103.725C108.629 105.904 112.696 107.792 117.78 109.39C123.009 110.843 128.747 112.295 134.993 113.748C141.239 115.055 147.703 116.725 154.384 118.759C161.066 120.647 167.312 123.189 173.123 126.385C178.933 129.58 183.581 133.938 187.067 139.458C190.698 144.832 192.514 151.659 192.514 159.939C192.514 168.799 190.118 176.571 185.324 183.253C180.676 189.789 173.631 194.873 164.189 198.505C154.748 202.136 143.055 203.952 129.111 203.952C119.814 203.952 111.389 203.08 103.836 201.337C96.2825 199.594 89.746 196.979 84.2262 193.493C78.7066 189.861 74.3488 185.286 71.1532 179.766C68.0267 174.366 66.1516 168.131 65.5279 161.062H65.5004V160.737C65.4964 160.689 65.4919 160.641 65.488 160.593L65.5004 160.588V124.743L125.834 161.062H98.7623C99.5007 162.696 100.393 164.209 101.439 165.604C104.489 169.671 108.557 172.722 113.641 174.755C118.87 176.644 124.68 177.587 131.071 177.587C137.172 177.587 142.256 176.861 146.323 175.409C150.535 173.811 153.658 171.849 155.692 169.525C157.87 167.056 158.96 164.442 158.96 161.682C158.96 158.487 157.58 155.872 154.82 153.838C152.061 151.659 148.284 149.844 143.49 148.391C138.697 146.793 133.105 145.268 126.714 143.815C119.451 142.072 112.333 140.184 105.36 138.15C98.3883 136.117 92.07 133.502 86.4051 130.306C80.7401 126.965 76.2368 122.753 72.8959 117.669C69.7003 112.44 68.103 105.904 68.103 98.0598C68.103 89.1992 70.3537 81.5004 74.8567 74.9639C79.3596 68.4274 85.969 63.3434 94.6843 59.712C103.4 55.9354 114.149 54.0469 126.932 54.0469Z" fill="#F0E8DB"/>
</g>
<defs>
<clipPath id="clip0_398_17">
<rect width="258" height="258" fill="white"/>
</clipPath>
</defs>
</svg>
