<svg width="491" height="495" viewBox="0 0 491 495" fill="none" xmlns="http://www.w3.org/2000/svg">
<path d="M452.279 373.368C411.959 438.084 354.04 476.297 278.676 487.314C182.787 501.316 87.0132 455.264 37.5474 372.077C36.4113 370.17 35.5834 368.09 34.6206 366.087C33.8312 361.079 37.8747 359.423 40.994 357.555C56.2824 348.387 72.341 347.115 88.9387 353.645C99.5674 357.824 108.059 365.278 116.801 372.308C143.353 393.649 162.204 394.266 189.892 374.754C192.492 372.925 194.86 370.652 198.056 369.747C217.157 370.459 236.104 373.483 255.34 372.79C264.582 372.462 273.689 369.843 282.99 371.403C287.168 372.366 290.403 375.043 293.792 377.451C314.895 392.494 336.865 392.262 357.679 376.661C362.801 372.828 367.615 368.572 372.563 364.508C396.17 345.112 423.242 344.746 447.388 363.448C450.507 365.875 454.647 368.09 452.279 373.368Z" fill="#375076"/>
<path d="M69.5488 81.1074C93.0206 55.51 121.383 37.0197 153.115 23.2868C190.412 7.12709 229.673 2.87048 269.472 6.37592C320.479 10.8637 365.631 30.6637 404.218 64.6588C410.168 69.8977 417.331 73.9039 421.374 81.146C418.871 83.8039 415.521 83.6884 412.382 83.515C397.633 82.6676 385.753 88.9851 374.701 97.8643C366.498 104.451 358.854 111.732 349.092 116.412C328.797 126.12 309.927 123.462 291.943 111C287.225 107.726 282.816 103.931 278.445 100.176C251.508 77.082 226.534 77.3901 200.309 100.946C188.217 111.79 175.277 120.842 158.218 122.133C144.316 123.173 131.8 119.244 121.402 110.75C105.652 97.8835 89.805 85.7878 69.5488 81.1074Z" fill="#BFD4DE"/>
<path d="M69.5487 81.106C87.7253 80.2585 101.03 90.5052 113.604 101.387C142.583 126.523 170.714 126.041 198.46 99.211C223.954 74.5573 253.857 74.4803 280.428 98.4984C293.329 110.151 307 120.282 326.005 119.704C339.907 119.281 351.306 113.753 361.646 105.317C369.54 98.8451 377.281 92.2001 386.003 86.8456C396.998 80.0851 409.224 80.7785 421.374 81.1445C452.047 113.059 471.918 150.753 481.95 193.781C482.759 197.267 483.317 200.657 483.183 204.201C478.966 207.572 475.211 204.914 471.687 203.007C463.812 198.712 456.649 193.434 449.968 187.367C438.338 176.793 425.456 169.32 408.724 170.052C395.438 170.63 384.848 176.35 374.97 184.324C365.285 192.144 356.196 200.85 344.162 205.145C329.702 210.307 315.511 211.058 301.955 202.352C302.495 197.537 306.827 197.903 309.869 196.786C318.303 193.704 327.141 191.951 335.767 189.505C342.391 187.618 344.297 183.939 342.93 177.371C338.578 156.454 325.851 141.97 308.098 131.299C294.099 122.882 278.695 118.221 262.618 117.046C235.353 115.063 208.145 115.082 182.517 127.062C156.022 139.447 140.676 159.073 141.235 189.351C141.331 194.089 142.005 199.001 139.733 203.527C135.766 206.628 132.531 203.527 129.239 202.082C120.285 198.153 113.604 191.046 106.095 185.114C78.8681 163.619 54.5106 164.563 28.5165 187.829C22.5475 193.184 17.4449 200.465 8.0293 200.387C15.5772 158.784 33.9849 122.401 61.1536 90.2548C63.83 87.1346 66.7375 84.1684 69.5487 81.106Z" fill="#A2C5D4"/>
<path d="M302.11 201.986C320.267 208.303 337.943 208.477 354.425 197.267C360.472 193.145 366.171 188.465 371.716 183.688C398.25 160.884 426.805 161.731 452.394 185.884C461.213 194.205 470.455 202.217 483.164 204.182C489.46 228.084 487.977 252.353 485.994 276.563C485.32 284.711 484.8 293.089 481.585 300.851C468.183 292.858 455.726 283.632 443.402 274.04C418.564 254.702 395.612 256.821 370.234 279.241C365.478 283.439 361.222 288.255 355.504 291.279C352.019 290.161 352.096 286.983 351.556 284.248C347.436 264.005 335.459 249.926 317.437 240.546C299.684 231.32 280.448 226.543 261.193 221.882C248.158 218.724 235.045 215.854 222.202 211.886C215.771 209.902 209.494 207.398 203.968 203.527C198.326 199.559 193.531 194.859 195.245 186.886C213.884 161.596 249.101 157.686 275.942 178.083C281.257 182.109 286.456 186.346 291.173 191.104C293.541 196.015 295.775 201.061 302.11 201.986Z" fill="#74A1B7"/>
<path d="M8.02969 200.408C19.987 194.591 28.4977 184.248 39.1841 176.679C59.9024 162.002 86.0313 165.681 104.863 180.993C115.511 189.661 125.6 199.06 138.597 204.28C140.465 205.146 141.639 206.764 142.159 208.594C149.707 235.097 170.907 246.306 194.225 255.051C200.502 257.401 206.875 259.462 213.383 261.176C216.002 261.869 219.371 261.715 219.911 265.606C212.17 269.284 205.893 275.544 197.633 278.318C189.661 277.297 183.846 271.885 177.261 268.11C163.763 260.405 150.709 251.969 136.19 243.803C134.842 256.283 135.805 267.397 135.439 278.472C135.285 283.21 136.287 288.102 133.726 292.551C129.547 295.672 126.524 292.32 123.347 290.529C115.761 286.234 109.792 279.801 102.841 274.639C77.6939 256.014 56.244 256.534 32.3101 276.796C27.6504 280.725 22.9522 284.616 18.1385 288.333C15.2118 290.587 12.1502 293.591 7.8564 290.818C4.77561 283.403 4.37126 275.467 4.04393 267.647C3.13895 245.112 2.5613 222.577 8.02969 200.408Z" fill="#74A1B7"/>
<path d="M355.85 291.029C381.651 260.598 413.249 244.784 447.869 273.984C456.938 281.63 465.545 289.758 476.694 294.323C479.736 295.575 481.122 297.809 481.604 300.852C476.405 326.874 466.508 351.007 452.278 373.388C443.729 359.405 429.866 354.474 414.847 352.51C397.787 350.275 383.981 357.903 371.523 368.727C357.698 380.746 343.527 391.435 323.559 391.147C307.597 390.915 295.813 383.384 284.896 373.176C286.455 368.091 291.307 368.746 294.966 367.533C312.391 361.755 328.681 354.493 340.388 339.239C349.168 327.817 352.211 314.797 353.578 301.006C353.924 297.597 353.154 293.919 355.85 291.029Z" fill="#527197"/>
<path d="M7.875 290.816C16.4819 289.545 21.4882 282.611 27.3802 277.565C35.0437 270.997 43.3618 265.873 52.4308 261.829C68.3546 254.76 82.9691 259.19 97.0252 267.434C109.656 274.849 118.745 287.272 132.724 292.819C135.708 295.073 135.208 298.501 135.631 301.583C139.944 333.902 157.697 355.031 188.486 365.49C191.605 366.549 195.649 366.722 196.535 371.152C175.547 394.862 143.969 398.965 117.455 376.372C108.463 368.706 99.5668 360.964 88.553 356.091C70.4342 348.078 48.3873 352.065 34.6393 366.106C20.8335 342.724 11.1291 317.916 7.875 290.816Z" fill="#527197"/>
<path d="M196.497 371.154C188.14 367.456 179.109 365.491 171.099 360.811C145.086 345.556 133.552 322.251 132.705 292.84C132.705 275.389 132.705 257.939 132.705 238.833C155.695 252.277 177.049 264.777 198.422 277.277C211.496 280.474 221.451 289.392 232.619 296.056C233.928 296.827 235.295 298.271 234.583 299.985C233.774 301.95 231.637 302.393 229.75 302.586C221.778 303.395 213.768 302.778 205.777 303.009C203.313 303.086 199.885 302.027 198.711 304.55C197.228 307.747 200.771 309.519 202.62 311.503C206.567 315.779 211.188 319.208 216.656 321.326C235.237 328.491 254.107 328.703 273.17 323.657C278.195 322.328 282.682 319.824 286.59 316.434C296.988 307.459 296.044 295.093 284.434 287.928C271.09 279.685 255.686 277.489 240.975 273.213C233.755 271.114 225.591 271.441 219.66 265.644C205.527 260.925 191.067 257.381 177.53 250.794C157.467 241.009 143.122 226.891 138.616 204.298C138.501 187.715 137.423 171.054 145.991 155.684C156.292 137.194 172.736 126.119 192.01 120.418C225.764 110.441 260.173 109.651 293.695 121.689C320.402 131.281 339.657 148.808 345.876 178.007C347.436 185.307 346.704 189.814 337.828 191.663C325.735 194.206 314.009 198.481 302.129 202.006C291.866 207.014 292.174 198.636 290.499 192.8C276.616 162.965 252.162 160.018 225.745 163.6C211.65 165.507 200.194 171.574 196.516 186.944C196.323 195.669 202.023 200.138 208.82 203.643C225.803 212.407 244.615 215.046 262.849 219.63C278.946 223.674 294.966 227.912 310.37 234.326C335.96 244.996 352.057 263.024 355.869 291.048C356.928 332.189 337.038 358.596 296.68 369.69C292.733 370.768 288.843 372.02 284.934 373.195C255.34 376.951 225.841 376.932 196.497 371.154Z" fill="#EBE7DC"/>
<path d="M196.516 186.925C195.457 179.606 198.056 173.77 203.756 169.244C222.144 154.664 263.927 157.225 280.621 173.693C286.09 179.086 289.498 185.23 290.48 192.781C285.031 188.408 279.774 183.786 274.113 179.683C249.294 161.713 223.03 163.331 200.232 183.998C199.077 185.057 197.767 185.962 196.516 186.925Z" fill="#A3C5D4"/>
<path d="M219.659 265.644C240.455 270.69 261.674 274.292 281.391 283.114C287.841 286.003 294.368 289.508 296.275 297.097C298.431 305.726 294.965 312.582 288.534 318.457C270.82 334.636 214.672 335.156 196.881 309.559C195.244 307.209 192.183 304.705 193.165 302.201C194.609 298.541 198.787 300.602 201.714 300.525C211.958 300.294 222.22 300.429 234.948 300.429C221.546 291.935 209.993 284.616 198.441 277.278C204.968 272.424 210.205 265.182 219.659 265.644Z" fill="#527197"/>
</svg>
