<svg xmlns="http://www.w3.org/2000/svg" width="1200" height="630" viewBox="0 0 1200 630" font-family="Helvetica, Arial, sans-serif">
  <defs>
    <linearGradient id="bg" x1="0" y1="0" x2="1" y2="1">
      <stop offset="0" stop-color="#0a1126"/>
      <stop offset="0.55" stop-color="#152a63"/>
      <stop offset="1" stop-color="#1e3a8a"/>
    </linearGradient>
    <radialGradient id="glow" cx="0.15" cy="0.1" r="0.7">
      <stop offset="0" stop-color="#3b6bff" stop-opacity="0.55"/>
      <stop offset="1" stop-color="#3b6bff" stop-opacity="0"/>
    </radialGradient>
  </defs>
  <rect width="1200" height="630" fill="url(#bg)"/>
  <rect width="1200" height="630" fill="url(#glow)"/>

  <g transform="translate(90,86)">
    <rect width="64" height="64" rx="18" fill="#2563eb"/>
    <path d="M18 34l9 9 20-21" fill="none" stroke="#fff" stroke-width="6" stroke-linecap="round" stroke-linejoin="round"/>
    <text x="84" y="44" fill="#ffffff" font-size="34" font-weight="700">Snagged Reviews</text>
  </g>

  <text x="90" y="290" fill="#ffffff" font-size="104" font-weight="800" letter-spacing="-3">Snagged Reviews</text>
  <text x="92" y="372" fill="#cdd9ff" font-size="40" font-weight="500">What founders really say about Snagged.com</text>

  <g transform="translate(90,452)">
    <g fill="#f5a623">
      <path d="M24 0l7 14 16 2.3-11.5 11.2L38 44 24 36.6 10 44l2.5-16.5L1 16.3 17 14z"/>
      <path d="M104 0l7 14 16 2.3-11.5 11.2L124 44l-14-7.4L96 44l2.5-16.5L87 16.3 103 14z"/>
      <path d="M184 0l7 14 16 2.3-11.5 11.2L204 44l-14-7.4L176 44l2.5-16.5L167 16.3 183 14z"/>
      <path d="M264 0l7 14 16 2.3-11.5 11.2L284 44l-14-7.4L256 44l2.5-16.5L247 16.3 263 14z"/>
      <path d="M344 0l7 14 16 2.3-11.5 11.2L364 44l-14-7.4L336 44l2.5-16.5L327 16.3 343 14z"/>
    </g>
    <text x="430" y="36" fill="#ffffff" font-size="40" font-weight="700">5.0 / 5.0 &#183; 31 verified reviews</text>
  </g>

  <text x="90" y="566" fill="#8ea2d8" font-size="28" font-weight="500">Reddit &#183; Y Combinator &#183; Kit &#183; t3.gg &#183; Helius &#183; Gleam &#183; G2i</text>
</svg>
